<?xml version="1.0" encoding="UTF-8" standalone="no"?>
<svg
   width="456"
   height="456"
   viewBox="0 0 456 456"
   version="1.1"
   id="svg3"
   sodipodi:docname="splash.svg"
   inkscape:version="1.4.2 (ebf0e940d0, 2025-05-08)"
   xmlns:inkscape="http://www.inkscape.org/namespaces/inkscape"
   xmlns:sodipodi="http://sodipodi.sourceforge.net/DTD/sodipodi-0.dtd"
   xmlns="http://www.w3.org/2000/svg"
   xmlns:svg="http://www.w3.org/2000/svg">
  <defs
     id="defs3" />
  <sodipodi:namedview
     id="namedview3"
     pagecolor="#ffffff"
     bordercolor="#000000"
     borderopacity="0.25"
     inkscape:showpageshadow="2"
     inkscape:pageopacity="0.0"
     inkscape:pagecheckerboard="0"
     inkscape:deskcolor="#d1d1d1"
     inkscape:zoom="2.0468881"
     inkscape:cx="301.43319"
     inkscape:cy="262.34947"
     inkscape:window-width="1797"
     inkscape:window-height="1104"
     inkscape:window-x="958"
     inkscape:window-y="131"
     inkscape:window-maximized="0"
     inkscape:current-layer="svg3" />
  <!-- Running person icon (simplified) -->
  <!-- App name -->
  <rect
     style="fill:#0ea5e9;fill-opacity:1;fill-rule:evenodd;stroke-width:1.00054"
     id="rect1"
     width="456.79092"
     height="455.8139"
     x="3.7642093e-07"
     y="0.48854649" />
  <text
     x="213.56261"
     y="299.81042"
     font-family="system-ui, -apple-system, sans-serif"
     font-size="48"
     font-weight="bold"
     text-anchor="middle"
     fill="white"
     id="text2"
     style="font-style:normal;font-variant:normal;font-weight:bold;font-stretch:normal;font-size:122.061px;font-family:system-ui, '-apple-system', sans-serif;-inkscape-font-specification:'system-ui, -apple-system, sans-serif, Bold';font-variant-ligatures:normal;font-variant-caps:normal;font-variant-numeric:normal;font-variant-east-asian:normal;text-anchor:middle;fill:#ffffff;fill-opacity:1;stroke-width:1.90721"
     transform="scale(1.0559055,0.94705445)">Milepal</text>
  <!-- Tagline -->
  <text
     x="213.56261"
     y="376.09866"
     font-family="system-ui, '-apple-system', sans-serif"
     font-size="30.5153px"
     text-anchor="middle"
     fill="white"
     opacity="0.8"
     id="text3"
     style="fill:#ffffff;fill-opacity:1;stroke-width:1.90721"
     transform="scale(1.0559055,0.94705445)">Your running companion</text>
  <!--!Font Awesome Free 6.7.2 by @fontawesome - https://fontawesome.com License - https://fontawesome.com/license/free Copyright 2025 Fonticons, Inc.-->
  <path
     d="m 238.60192,108.65351 a 11.215413,10.767075 0 1 0 -22.43081,0 11.215413,10.767075 0 1 0 22.43081,0 z m -45.39906,28.60005 c 2.31318,-2.2207 5.46752,-3.47685 8.76205,-3.47685 0.44392,0 0.88788,0.0222 1.30846,0.0674 l -7.29002,21.01824 c -2.17298,6.28078 0.39724,13.18965 6.26196,16.71138 l 20.14099,12.09053 -5.93482,19.91908 c -1.14492,3.81336 1.16826,7.7837 5.14043,8.88283 3.9721,1.09914 8.10777,-1.12156 9.2527,-4.93491 l 6.70587,-22.52111 c 1.37855,-4.62089 -0.60753,-9.55579 -4.83666,-12.09053 l -13.27155,-7.96315 7.21991,-18.48347 1.19163,2.75906 c 3.50481,8.03042 11.65937,13.25696 20.72517,13.25696 h 4.97682 c 4.13567,0 7.47695,-3.2077 7.47695,-7.17806 0,-3.97036 -3.34128,-7.17804 -7.47695,-7.17804 h -4.97682 c -3.01415,0 -5.74793,-1.74966 -6.8928,-4.41899 l -1.47204,-3.36471 c -3.41136,-7.87342 -10.30416,-13.88504 -18.80918,-16.39735 l -11.37895,-3.36472 c -2.59358,-0.76266 -5.30399,-1.16642 -8.03773,-1.16642 -7.2433,0 -14.2062,2.75906 -19.32322,7.69395 l -5.42079,5.18167 c -2.92069,2.80392 -2.92069,7.35751 0,10.16142 2.9207,2.80394 7.66387,2.80394 10.58455,0 l 5.39743,-5.18165 z m -8.06106,39.59141 h -13.83236 c -4.13566,0 -7.47693,3.2077 -7.47693,7.17806 0,3.97037 3.34127,7.17805 7.47693,7.17805 h 16.26233 c 4.43948,0 8.4583,-2.51233 10.25744,-6.39292 l 2.68705,-5.80975 -2.21973,-1.3459 c -4.08894,-2.44501 -7.12645,-6.01163 -8.85549,-10.07168 z"
     id="path1-3"
     style="fill:#ffffff;stroke-width:0.228936" />
</svg>
