<?xml version="1.0" encoding="UTF-8" standalone="no"?>
<svg
   width="456"
   height="456"
   viewBox="0 0 456 456"
   version="1.1"
   xml:space="preserve"
   style="fill-rule:evenodd;clip-rule:evenodd;stroke-linejoin:round;stroke-miterlimit:2;"
   id="svg4"
   sodipodi:docname="appiconfg.svg"
   inkscape:version="1.4.2 (ebf0e940d0, 2025-05-08)"
   xmlns:inkscape="http://www.inkscape.org/namespaces/inkscape"
   xmlns:sodipodi="http://sodipodi.sourceforge.net/DTD/sodipodi-0.dtd"
   xmlns="http://www.w3.org/2000/svg"
   xmlns:svg="http://www.w3.org/2000/svg"><defs
   id="defs4" /><sodipodi:namedview
   id="namedview4"
   pagecolor="#ffffff"
   bordercolor="#000000"
   borderopacity="0.25"
   inkscape:showpageshadow="2"
   inkscape:pageopacity="0.0"
   inkscape:pagecheckerboard="0"
   inkscape:deskcolor="#d1d1d1"
   inkscape:zoom="2.8947368"
   inkscape:cx="227.82727"
   inkscape:cy="228"
   inkscape:window-width="3840"
   inkscape:window-height="1528"
   inkscape:window-x="0"
   inkscape:window-y="0"
   inkscape:window-maximized="1"
   inkscape:current-layer="svg4" />
  <!--!Font Awesome Free 6.7.2 by @fontawesome - https://fontawesome.com License - https://fontawesome.com/license/free Copyright 2025 Fonticons, Inc.-->
    <path
   d="m 261.98829,155.52185 a 16.847913,16.174415 0 1 0 -33.69581,0 16.847913,16.174415 0 1 0 33.69581,0 z m -68.19896,42.9633 c 3.47489,-3.33596 8.21337,-5.22296 13.16245,-5.22296 0.66686,0 1.33378,0.0334 1.96558,0.10125 l -10.95114,31.57382 c -3.26428,9.43506 0.59673,19.81364 9.40678,25.10402 l 30.25601,18.16252 -8.91535,29.92266 c -1.71991,5.72847 1.75497,11.69275 7.72201,13.34388 5.96693,1.65114 12.17958,-1.68482 13.8995,-7.41328 l 10.07363,-33.83145 c 2.07088,-6.94155 -0.91263,-14.35481 -7.26568,-18.16252 l -19.93666,-11.96233 10.84582,-27.76607 1.79008,4.14469 c 5.26497,12.06338 17.51483,19.91475 31.13357,19.91475 h 7.47624 c 6.21264,0 11.23195,-4.81864 11.23195,-10.78296 0,-5.96432 -5.01931,-10.78293 -11.23195,-10.78293 h -7.47624 c -4.52788,0 -8.6346,-2.62836 -10.35443,-6.63825 l -2.21132,-5.05451 c -5.12458,-11.82753 -15.47902,-20.85825 -28.25535,-24.63227 l -17.09358,-5.05452 c -3.8961,-1.14567 -7.96771,-1.75221 -12.07436,-1.75221 -10.88097,0 -21.34071,4.14469 -29.02755,11.55794 l -8.14317,7.78396 c -4.38749,4.21208 -4.38749,11.05253 0,15.26459 4.38751,4.21211 11.51275,4.21211 15.90022,0 l 8.10808,-7.78393 z m -12.10941,59.47464 H 160.9008 c -6.21263,0 -11.23192,4.81864 -11.23192,10.78296 0,5.96433 5.01929,10.78294 11.23192,10.78294 h 24.42945 c 6.66903,0 12.70615,-3.77405 15.40884,-9.60351 l 4.03651,-8.72747 -3.3345,-2.02182 c -6.14245,-3.67292 -10.70543,-9.03074 -13.30281,-15.12979 z"
   id="path1-3"
   style="fill:#ffffff;stroke-width:0.34391" />
    
    
    
    
</svg>
